# xmcd
#
# Track frame offsets:
# 183
# 14785
# 29293
# 43940
# 58598
# 73470
# 87760
# 102653
#
# Disc length: 1560 seconds
#
#
# Revision: 0
# Processed by: cddbd v1.4PL0 Copyright (c) Steve Scherf et al.
# Submitted via: FreeRIP 2.35 
#
DISCID=75061608
DTITLE=EL PALI - AÑORANZAS SEVILLANAS
DYEAR=1900
DGENRE=
TTITLE0=AÑORANZAS SEVILLANAS
TTITLE1=SEVILLANAS DEL LEAL
TTITLE2=SEVILLANAS DE GINES 1920
TTITLE3=LA INFANTA MARIA LUISA
TTITLE4=ARENAL DE SEVILLA
TTITLE5=EN EL CORTIJP DE DUCHA
TTITLE6=REQUIEBROS A VALME
TTITLE7=LA BODA DE LA ALONDRA
EXTD=
EXTT0=
EXTT1=
EXTT2=
EXTT3=
EXTT4=
EXTT5=
EXTT6=
EXTT7=
PLAYORDER=
